<?xml version="1.0" encoding="utf-8"?>
<!-- Generator: Adobe Illustrator 26.0.1, SVG Export Plug-In . SVG Version: 6.00 Build 0)  -->
<svg version="1.1" id="Layer_1" xmlns="http://www.w3.org/2000/svg" xmlns:xlink="http://www.w3.org/1999/xlink" x="0px" y="0px"
	 viewBox="0 0 969.7 263.3" style="enable-background:new 0 0 969.7 263.3;" xml:space="preserve">
<style type="text/css">
	.st0{clip-path:url(#SVGID_00000177473116577548547950000018181443409903788194_);}
	.st1{fill:url(#path30_00000038404943364341396300000008783716456344486827_);}
	.st2{clip-path:url(#SVGID_00000073692434152357648420000003459536232894086323_);}
	.st3{fill:url(#path50_00000158725890990470283940000010957160468384301719_);}
	.st4{clip-path:url(#SVGID_00000036964559526347876200000014844155646613121674_);}
	.st5{fill:url(#path70_00000088091904049232774020000004885430343311162502_);}
	.st6{fill:#FFFFFF;}
	.st7{clip-path:url(#SVGID_00000124146551742010420480000009102293435491642793_);}
	.st8{clip-path:url(#SVGID_00000066493943628589545260000005808060382190994081_);}
	.st9{clip-path:url(#SVGID_00000181773430556657569730000011959997296391314613_);}
</style>
<g>
	<path d="M298.9,87.6l11.4-9l37.9-50.5h30.2l-50.6,58.2l30.4,70H330L307.7,100l-12.4,8.4l-8.2,47.8h-24.2l22-128.1H309L298.9,87.6
		L298.9,87.6z"/>
	<path d="M384.4,63.9l24.6-0.6l-16,92.9h-24.6L384.4,63.9L384.4,63.9z M388,36.5c0-2,0.4-3.9,1.2-5.8c0.8-1.9,1.9-3.6,3.3-5.1
		c1.4-1.5,3-2.7,4.9-3.6s3.9-1.3,6-1.3c3.2,0,5.9,1.1,8.1,3.4s3.2,5.1,3.2,8.4c0,2-0.4,3.9-1.1,5.8s-1.8,3.6-3.2,5.1
		c-1.4,1.5-3,2.7-4.9,3.6c-1.9,0.9-3.9,1.3-6,1.3c-3.4,0-6.1-1.1-8.2-3.4C389,42.7,388,39.9,388,36.5z"/>
	<path d="M423.8,49.3l5.1-21.2h88.9l-4.9,21.2h-31.7l-18.4,106.9h-24.6l18.2-106.9H423.8L423.8,49.3z"/>
	<path d="M585.3,99.9c-1.8,9.4-3.2,18.7-4.5,27.9s-2,18.7-2.2,28.4h-23.3l2.6-23.1h-0.4c-3.6,7.5-8.2,13.5-13.8,18.1
		c-5.6,4.6-11.4,6.8-17.5,6.8c-4.4,0-8.2-0.8-11.6-2.3s-6.3-3.8-8.7-6.6c-2.4-2.8-4.3-6.2-5.5-10.1c-1.2-3.9-1.9-8.3-1.9-13
		c0-8,1.4-15.8,4.2-23.5c2.8-7.7,6.6-14.5,11.4-20.5s10.4-10.8,16.9-14.5s13.2-5.4,20.3-5.4c3,0,6.1,0.4,9.4,1.1s6.1,2,8.6,3.8h0.4
		l2.2-3l20.3-1.3L585.3,99.9L585.3,99.9z M564.7,82.5c-1.1-0.6-2.5-1.2-4.2-1.7c-1.7-0.5-3.6-0.8-5.7-0.8c-4.5,0-8.6,1.2-12.3,3.6
		c-3.7,2.4-6.9,5.5-9.7,9.4s-4.9,8.4-6.4,13.5c-1.5,5.1-2.2,10.4-2.2,15.8c0,5,1,9,2.9,12c1.9,3,5,4.5,9.1,4.5c2.2,0,4.6-0.7,7-2.2
		s4.8-3.7,7.1-6.7c2.3-3,4.4-6.8,6.3-11.4s3.4-10.1,4.5-16.5L564.7,82.5L564.7,82.5z"/>
	<path d="M621.9,19.8l24.6-0.8l-23.6,137.1h-24.6L621.9,19.8z"/>
	<path d="M671.6,116.5c-0.2,0.6-0.4,1.3-0.4,2.1v2.1c0,3.2,0.6,6,1.8,8.3c1.2,2.3,2.7,4.2,4.6,5.7s4,2.6,6.5,3.2c2.4,0.7,5,1,7.6,1
		c4.9,0,9.7-0.5,14.5-1.6c4.8-1.1,9-2.5,12.8-4.2l2.1,17.6c-5,2.5-10.8,4.4-17.3,5.6s-12.6,1.8-18.4,1.8c-12.8,0-22.3-3.3-28.7-9.8
		c-6.4-6.6-9.6-15.8-9.6-27.9c0-7.9,1.2-15.3,3.7-22.4c2.4-7.1,6-13.3,10.6-18.7s10.2-9.6,16.8-12.8c6.6-3.1,13.9-4.7,22-4.7
		c9.6,0,17.2,2.4,22.6,7.3s8.2,11,8.3,18.2c0,9.8-3.9,17.2-11.8,22.2s-19.2,7.6-34,7.6c-2.1,0-4.3-0.1-6.6-0.2
		C676.5,116.9,674.1,116.7,671.6,116.5L671.6,116.5z M673.7,101.3c2,0.2,3.9,0.4,5.7,0.6c1.8,0.1,3.6,0.2,5.3,0.2
		c7.2,0,12.9-1.2,17.1-3.8s6.2-5.6,6.2-9.2c0-2.5-1-4.6-2.9-6.4s-4.8-2.6-8.5-2.6c-5.8,0-10.7,2.1-14.7,6.2S675,95.4,673.7,101.3
		L673.7,101.3z"/>
	<path d="M807.5,61.9c4.9,0,8.9,0.8,12.2,2.4s5.8,3.9,7.6,6.8c1.8,2.9,3,6.3,3.5,10.1c0.5,3.9,0.4,8-0.4,12.4l-10.1,62.7h-24.8
		l8.6-50.7c0.4-2.2,0.7-4.8,1-7.6c0.3-2.8,0.3-5.4-0.1-7.9c-0.4-2.4-1.3-4.5-2.8-6.2s-3.9-2.5-7.1-2.5c-2.2,0-4.7,0.8-7.3,2.5
		s-5.2,4.2-7.8,7.4c-2.6,3.2-4.9,7.4-6.9,12.3c-2.1,4.9-3.6,10.6-4.6,17l-6,35.7h-24.6l9.8-56.3c1-6.4,2-12.6,2.9-18.6
		s1.8-11.8,2.5-17.5l22.3-0.6l-2.8,21.6h0.4c4.4-7.1,9.6-12.8,15.8-16.9C794.8,63.9,801.1,61.9,807.5,61.9L807.5,61.9z"/>
	<path d="M849.8,135.8c0-2.2,0.3-5.7,1-10.4s1.5-9.7,2.3-15.1c0.9-5.4,1.8-10.6,2.7-15.8c0.9-5.1,1.7-9.2,2.3-12.4h-11.4l4.3-17.6
		l10.3-0.6l5.2-21l23.3-4.7l-4.3,25.7h20.8l-4.7,18.2h-19.3l-6,34c-0.4,1.9-0.8,4-1.2,6.5c-0.4,2.4-0.6,4.8-0.4,6.9
		c0.2,2.2,0.9,4.1,2.1,5.6c1.2,1.6,3.2,2.3,6.1,2.3c1.4,0,2.8-0.1,4.4-0.2c1.6-0.1,3.3-0.5,5.2-1.1c-0.5,2.9-1,6.1-1.4,9.8
		s-0.8,6.9-1.2,9.8c-2.1,0.8-5,1.3-8.5,1.8c-3.6,0.4-6.8,0.7-9.7,0.7c-8,0-13.8-2-17.3-6S849.4,142.7,849.8,135.8L849.8,135.8z"/>
</g>
<g>
	<path d="M267.8,184.2c2.2-0.2,4.5-0.4,6.8-0.5c2.3-0.1,4.7-0.2,7-0.2c7.1,0,12.4,1.7,16.1,5s5.5,8.3,5.5,14.9
		c0,4.4-0.6,8.3-1.9,11.9s-3.2,6.6-5.7,9.2s-5.6,4.5-9.4,5.9s-8,2.1-12.9,2.1c-3.1,0-5.8-0.1-8.1-0.2s-4.1-0.2-5.6-0.3L267.8,184.2
		L267.8,184.2z M281.1,191.1c-1,0-1.9,0-2.7,0.1s-1.7,0.1-2.4,0.1l-5.8,33.3c0.7,0.1,1.5,0.1,2.2,0.1h2.5c2.8,0,5.4-0.4,7.6-1.4
		c2.2-1,4.2-2.4,5.8-4.2c1.6-1.8,2.8-4,3.7-6.7c0.9-2.6,1.3-5.6,1.3-8.8c0-4-1-7.1-3-9.3S285.2,191.1,281.1,191.1L281.1,191.1z"/>
	<path d="M311.5,197.3l9.3-0.2l-6,35.2h-9.3L311.5,197.3z M312.8,186.9c0-0.8,0.1-1.5,0.5-2.2s0.7-1.3,1.2-1.9s1.1-1,1.9-1.3
		c0.7-0.3,1.5-0.5,2.3-0.5c1.2,0,2.2,0.4,3.1,1.3c0.8,0.8,1.2,1.9,1.2,3.2c0,0.8-0.1,1.5-0.4,2.2c-0.3,0.7-0.7,1.3-1.2,1.9
		s-1.1,1-1.9,1.3c-0.7,0.3-1.5,0.5-2.3,0.5c-1.3,0-2.3-0.4-3.1-1.3C313.2,189.3,312.8,188.2,312.8,186.9z"/>
	<path d="M336.2,205.4c0.6-1.2,1.4-2.3,2.2-3.4c0.9-1.1,1.8-2,2.9-2.9s2.3-1.5,3.6-2c1.3-0.5,2.8-0.8,4.3-0.8l-1.7,9
		c-1.9-0.1-3.6,0.2-5,0.8c-1.5,0.6-2.7,1.5-3.7,2.7c-1,1.2-1.9,2.5-2.5,4.1c-0.6,1.6-1.1,3.3-1.4,5l-2.5,14.4h-9.3l3.6-21.3
		c0.4-2.4,0.8-4.8,1.2-7.2c0.4-2.4,0.7-4.5,1-6.4l8.3-0.2l-1.2,8.2H336.2L336.2,205.4z"/>
	<path d="M358.8,217.2c-0.1,0.2-0.1,0.5-0.1,0.8v0.8c0,1.2,0.2,2.3,0.7,3.1c0.5,0.9,1,1.6,1.7,2.2s1.5,1,2.5,1.2
		c0.9,0.3,1.9,0.4,2.9,0.4c1.9,0,3.7-0.2,5.5-0.6c1.8-0.4,3.4-0.9,4.8-1.6l0.8,6.7c-1.9,1-4.1,1.7-6.5,2.1c-2.5,0.5-4.8,0.7-7,0.7
		c-4.8,0-8.5-1.2-10.9-3.7s-3.6-6-3.6-10.6c0-3,0.5-5.8,1.4-8.5c0.9-2.7,2.3-5,4-7.1c1.8-2,3.9-3.7,6.4-4.8s5.3-1.8,8.4-1.8
		c3.6,0,6.5,0.9,8.6,2.8c2.1,1.8,3.1,4.2,3.2,6.9c0,3.7-1.5,6.5-4.5,8.4c-3,1.9-7.3,2.9-12.9,2.9c-0.8,0-1.6,0-2.5-0.1
		C360.6,217.4,359.7,217.3,358.8,217.2L358.8,217.2z M359.5,211.5c0.8,0.1,1.5,0.2,2.2,0.2c0.7,0,1.4,0.1,2,0.1
		c2.8,0,4.9-0.5,6.5-1.4s2.4-2.1,2.4-3.5c0-1-0.4-1.8-1.1-2.4c-0.7-0.7-1.8-1-3.2-1c-2.2,0-4,0.8-5.6,2.3
		C361.1,207.3,360.1,209.2,359.5,211.5L359.5,211.5z"/>
	<path d="M407,203.9c-1.8,0-3.5,0.3-5,1c-1.5,0.7-2.8,1.6-3.9,2.8s-2,2.7-2.6,4.4c-0.6,1.7-1,3.6-1,5.8c0,2.8,0.7,4.8,2.2,6.1
		c1.4,1.2,3.2,1.8,5.4,1.8c1.6,0,3.1-0.2,4.6-0.5c1.5-0.4,2.8-0.8,3.8-1.2l0.5,6.8c-1.4,0.6-3.1,1.1-5.3,1.5
		c-2.1,0.4-4.3,0.6-6.4,0.6c-4.5,0-8-1.2-10.6-3.6c-2.6-2.4-3.9-5.8-4-10.4c0-3.2,0.5-6.1,1.6-8.9s2.6-5.1,4.5-7.1s4.3-3.6,7-4.7
		c2.7-1.1,5.7-1.7,9-1.7c1.7,0,3.2,0.1,4.7,0.4c1.5,0.3,2.7,0.6,3.7,1l-1.9,7.1c-0.8-0.3-1.8-0.6-2.8-0.9S408.3,203.9,407,203.9
		L407,203.9z"/>
	<path d="M418.8,224.5c0-0.8,0.1-2.2,0.4-4s0.6-3.7,0.9-5.7c0.3-2,0.7-4,1-6c0.4-1.9,0.6-3.5,0.9-4.7h-4.3l1.6-6.7l3.9-0.2l2-8
		l8.8-1.8l-1.6,9.7h7.9l-1.8,6.9h-7.3l-2.3,12.9c-0.1,0.7-0.3,1.5-0.5,2.5c-0.2,0.9-0.2,1.8-0.1,2.6s0.3,1.5,0.8,2.1
		s1.2,0.9,2.3,0.9c0.5,0,1.1,0,1.7-0.1c0.6,0,1.2-0.2,2-0.4c-0.2,1.1-0.4,2.3-0.5,3.7c-0.2,1.4-0.3,2.6-0.5,3.7
		c-0.8,0.3-1.9,0.5-3.2,0.7c-1.3,0.2-2.6,0.2-3.7,0.2c-3,0-5.2-0.8-6.5-2.3C419.2,229.2,418.7,227.2,418.8,224.5L418.8,224.5z"/>
	<path d="M467.6,225c1,0,2.1-0.1,3.1-0.4s1.9-0.7,2.6-1.2c0.8-0.5,1.4-1.2,1.8-2c0.5-0.8,0.7-1.7,0.7-2.8c0-1.3-0.4-2.4-1.2-3.4
		c-0.8-1-1.9-1.9-3.1-2.7c-1.2-0.8-2.6-1.7-4-2.5s-2.8-1.8-4-2.8c-1.2-1-2.3-2.2-3.1-3.6c-0.8-1.4-1.2-3-1.2-4.9
		c0-2.6,0.5-4.9,1.5-6.9s2.3-3.6,4-4.9s3.6-2.3,5.8-3s4.5-1,6.9-1c2.6,0,4.8,0.2,6.7,0.7c1.9,0.5,3.5,1,4.7,1.6l-2.3,7.8
		c-1.1-0.5-2.5-1-4.2-1.5s-3.5-0.7-5.4-0.7c-2.5,0-4.4,0.5-5.9,1.6c-1.5,1.1-2.2,2.5-2.2,4.2c0,1.3,0.4,2.4,1.2,3.3s1.8,1.7,3.1,2.5
		c1.2,0.8,2.6,1.6,4,2.4c1.5,0.8,2.8,1.7,4,2.8c1.2,1.1,2.2,2.3,3.1,3.8c0.8,1.5,1.2,3.3,1.2,5.4c0,2.7-0.5,5-1.5,7s-2.4,3.7-4.1,5
		s-3.7,2.4-6,3.1s-4.7,1-7.3,1c-2.8,0-5.4-0.3-7.8-0.8c-2.4-0.6-4.2-1.2-5.5-2.1l2.4-7.8c1.7,0.8,3.5,1.5,5.6,2S465.5,225,467.6,225
		L467.6,225z"/>
	<path d="M499.9,217.2c-0.1,0.2-0.1,0.5-0.1,0.8v0.8c0,1.2,0.2,2.3,0.7,3.1c0.5,0.9,1,1.6,1.7,2.2s1.5,1,2.5,1.2
		c0.9,0.3,1.9,0.4,2.9,0.4c1.8,0,3.7-0.2,5.5-0.6c1.8-0.4,3.4-0.9,4.8-1.6l0.8,6.7c-1.9,1-4.1,1.7-6.5,2.1c-2.5,0.5-4.8,0.7-7,0.7
		c-4.8,0-8.5-1.2-10.9-3.7s-3.6-6-3.6-10.6c0-3,0.5-5.8,1.4-8.5c0.9-2.7,2.3-5,4-7.1c1.8-2,3.9-3.7,6.4-4.8s5.3-1.8,8.3-1.8
		c3.7,0,6.5,0.9,8.6,2.8c2.1,1.8,3.1,4.2,3.2,6.9c0,3.7-1.5,6.5-4.5,8.4s-7.3,2.9-12.9,2.9c-0.8,0-1.6,0-2.5-0.1
		C501.7,217.4,500.8,217.3,499.9,217.2L499.9,217.2z M500.7,211.5c0.8,0.1,1.5,0.2,2.2,0.2c0.7,0,1.4,0.1,2,0.1
		c2.8,0,4.9-0.5,6.5-1.4s2.3-2.1,2.3-3.5c0-1-0.4-1.8-1.1-2.4c-0.7-0.7-1.8-1-3.2-1c-2.2,0-4,0.8-5.6,2.3
		C502.2,207.3,501.2,209.2,500.7,211.5L500.7,211.5z"/>
	<path d="M558.6,211c-0.7,3.5-1.2,7.1-1.7,10.6c-0.5,3.5-0.8,7.1-0.8,10.8h-8.8l1-8.7h-0.1c-1.4,2.8-3.1,5.1-5.2,6.9
		s-4.3,2.6-6.7,2.6c-1.7,0-3.1-0.3-4.4-0.9s-2.4-1.4-3.3-2.5c-0.9-1.1-1.6-2.3-2.1-3.8c-0.5-1.5-0.7-3.1-0.7-4.9c0-3,0.5-6,1.6-8.9
		c1.1-2.9,2.5-5.5,4.3-7.8c1.8-2.3,4-4.1,6.4-5.5c2.4-1.4,5-2.1,7.7-2.1c1.1,0,2.3,0.1,3.5,0.4c1.2,0.3,2.3,0.8,3.3,1.4h0.1l0.8-1.1
		l7.7-0.5L558.6,211L558.6,211z M550.8,204.4c-0.4-0.2-1-0.5-1.6-0.6c-0.6-0.2-1.4-0.3-2.2-0.3c-1.7,0-3.3,0.5-4.7,1.4
		c-1.4,0.9-2.6,2.1-3.7,3.6c-1,1.5-1.8,3.2-2.4,5.1s-0.8,4-0.8,6c0,1.9,0.4,3.4,1.1,4.6s1.9,1.7,3.5,1.7c0.8,0,1.7-0.3,2.7-0.8
		c0.9-0.5,1.8-1.4,2.7-2.5s1.7-2.6,2.4-4.3c0.7-1.7,1.3-3.8,1.7-6.2L550.8,204.4L550.8,204.4z"/>
	<path d="M576.6,205.4c0.6-1.2,1.3-2.3,2.2-3.4c0.8-1.1,1.8-2,2.9-2.9s2.3-1.5,3.6-2c1.3-0.5,2.8-0.8,4.3-0.8l-1.7,9
		c-1.9-0.1-3.6,0.2-5,0.8c-1.5,0.6-2.7,1.5-3.7,2.7c-1,1.2-1.8,2.5-2.5,4.1c-0.6,1.6-1.1,3.3-1.4,5l-2.5,14.4h-9.3l3.6-21.3
		c0.4-2.4,0.8-4.8,1.2-7.2c0.4-2.4,0.7-4.5,1-6.4l8.3-0.2l-1.2,8.2H576.6L576.6,205.4z"/>
	<path d="M612.1,203.9c-1.8,0-3.5,0.3-5,1c-1.5,0.7-2.8,1.6-3.9,2.8c-1.1,1.2-2,2.7-2.6,4.4c-0.6,1.7-1,3.6-1,5.8
		c0,2.8,0.7,4.8,2.2,6.1c1.5,1.2,3.2,1.8,5.4,1.8c1.6,0,3.2-0.2,4.6-0.5c1.5-0.4,2.8-0.8,3.8-1.2l0.5,6.8c-1.4,0.6-3.1,1.1-5.3,1.5
		c-2.1,0.4-4.3,0.6-6.4,0.6c-4.5,0-8-1.2-10.6-3.6c-2.6-2.4-3.9-5.8-4-10.4c0-3.2,0.5-6.1,1.6-8.9c1.1-2.7,2.6-5.1,4.5-7.1
		s4.3-3.6,7-4.7c2.7-1.1,5.7-1.7,9-1.7c1.7,0,3.2,0.1,4.7,0.4c1.5,0.3,2.7,0.6,3.7,1l-1.9,7.1c-0.8-0.3-1.8-0.6-2.8-0.9
		S613.4,203.9,612.1,203.9L612.1,203.9z"/>
	<path d="M647.3,196.6c2.8,0,5,0.8,6.6,2.5c1.6,1.7,2.4,4,2.4,7c0,0.5,0,1-0.1,1.5s-0.1,1-0.2,1.5l-3.8,23.2h-9.4l3.3-19
		c0.1-0.8,0.3-1.6,0.4-2.5c0.1-0.8,0.1-1.6,0.1-2.4c0-1.2-0.2-2.3-0.7-3.2c-0.5-0.9-1.4-1.3-2.8-1.3s-2.6,0.5-3.7,1.6
		s-2.2,2.3-3.1,3.8s-1.7,3.2-2.3,4.9c-0.6,1.8-1.1,3.3-1.4,4.8c-0.5,2.4-0.9,4.6-1.2,6.7c-0.4,2.1-0.7,4.3-1.1,6.7H621l8.8-51.7
		l9.4-0.3l-4,24.2h0.1c1.5-2.3,3.3-4.2,5.4-5.7S645,196.6,647.3,196.6L647.3,196.6z"/>
</g>
<g id="g12">
	<g>
		<defs>
			<path id="SVGID_1_" d="M0.2,262c-0.5,0.5,0,1.4,0.7,1.2l0,0c141.5-27,156.4-93.5,156.4-93.5l0,0C80.9,178.6,11.3,250.1,0.2,262"
				/>
		</defs>
		<clipPath id="SVGID_00000100367678676269615580000009704368818491166894_">
			<use xlink:href="#SVGID_1_"  style="overflow:visible;"/>
		</clipPath>
		<g style="clip-path:url(#SVGID_00000100367678676269615580000009704368818491166894_);">
			<g id="g14">
				<g id="g20">
					<g id="g22">
						
							<linearGradient id="path30_00000004541531509137767310000000812624942061336207_" gradientUnits="userSpaceOnUse" x1="-37.9777" y1="385.4977" x2="-37.2277" y2="385.4977" gradientTransform="matrix(27.5924 33.9646 -33.9646 27.5924 14213.9258 -9137.9248)">
							<stop  offset="0" style="stop-color:#1874B2"/>
							<stop  offset="1" style="stop-color:#15659B"/>
						</linearGradient>
						<path id="path30" style="fill:url(#path30_00000004541531509137767310000000812624942061336207_);" d="M0.2,262
							c-0.5,0.5,0,1.4,0.7,1.2l0,0c141.5-27,156.4-93.5,156.4-93.5l0,0C80.9,178.6,11.3,250.1,0.2,262"/>
					</g>
				</g>
			</g>
		</g>
	</g>
</g>
<g id="g32">
	<g>
		<defs>
			<path id="SVGID_00000177454141723632471660000011696280849061606296_" d="M175.2,13.7C163.2,13.8,153.4,30,153.6,50l0,0
				c0.1,20,10,36.1,22.1,36l0,0c12.1-0.1,21.8-16.3,21.7-36.3l0,0C197.3,29.8,187.4,13.7,175.2,13.7L175.2,13.7"/>
		</defs>
		<clipPath id="SVGID_00000148645263154348333360000018440872180368872871_">
			<use xlink:href="#SVGID_00000177454141723632471660000011696280849061606296_"  style="overflow:visible;"/>
		</clipPath>
		<g style="clip-path:url(#SVGID_00000148645263154348333360000018440872180368872871_);">
			<g id="g34">
				<g id="g40">
					<g id="g42">
						
							<linearGradient id="path50_00000124874399910765772560000003218015623409836718_" gradientUnits="userSpaceOnUse" x1="-29.6006" y1="378.6931" x2="-28.8406" y2="378.6931" gradientTransform="matrix(65.3679 -40.7513 40.7513 65.3679 -13345.0811 -25896.248)">
							<stop  offset="0" style="stop-color:#1874B2"/>
							<stop  offset="1" style="stop-color:#15659B"/>
						</linearGradient>
						<path id="path50" style="fill:url(#path50_00000124874399910765772560000003218015623409836718_);" d="M175.2,13.7
							C163.2,13.8,153.4,30,153.6,50l0,0c0.1,20,10,36.1,22.1,36l0,0c12.1-0.1,21.8-16.3,21.7-36.3l0,0
							C197.3,29.8,187.4,13.7,175.2,13.7L175.2,13.7"/>
					</g>
				</g>
			</g>
		</g>
	</g>
</g>
<g id="g52">
	<g>
		<defs>
			<path id="SVGID_00000160911599532147299040000000640168053806540707_" d="M242.6,0.8c-2.8,11-10,36.9-24.2,68.7l0,0
				c-4,9-8,14.1-8.5,14.8l0,0c-17.5,18.6-55.7,20.2-55.7,20.2l0,0c-93.9,7.1-107.3,63.8-108.9,73.6l0,0c-0.1,0.5,0.5,0.8,0.9,0.5
				l0,0c8.2-6.7,60.6-47.7,88.9-19.2l0,0c0,0,14.8,18-18.3,50.3l0,0c-30.5,24.8-67.6,44.3-112.6,53l0,0c0.3,0,0.7,0.1,1.2,0.1l0,0
				C47.1,256.5,266.5,213,244.6,0.9l0,0c-0.1-0.6-0.5-0.9-1-0.9l0,0C243.2,0,242.8,0.2,242.6,0.8"/>
		</defs>
		<clipPath id="SVGID_00000002366810403136981530000006918962934949730458_">
			<use xlink:href="#SVGID_00000160911599532147299040000000640168053806540707_"  style="overflow:visible;"/>
		</clipPath>
		<g style="clip-path:url(#SVGID_00000002366810403136981530000006918962934949730458_);">
			<g id="g54">
				<g id="g60">
					<g id="g62">
						
							<linearGradient id="path70_00000000908698809724962060000001483432004792000161_" gradientUnits="userSpaceOnUse" x1="-28.3335" y1="383.4586" x2="-27.5735" y2="383.4586" gradientTransform="matrix(392.8018 -17.0127 17.0127 392.8018 4650.5332 -150970.4062)">
							<stop  offset="0" style="stop-color:#3D8BB7"/>
							<stop  offset="1" style="stop-color:#3880A8"/>
						</linearGradient>
						<path id="path70" style="fill:url(#path70_00000000908698809724962060000001483432004792000161_);" d="M242.6,0.8
							c-2.8,11-10,36.9-24.2,68.7l0,0c-4,9-8,14.1-8.5,14.8l0,0c-17.5,18.6-55.7,20.2-55.7,20.2l0,0
							c-93.9,7.1-107.3,63.8-108.9,73.6l0,0c-0.1,0.5,0.5,0.8,0.9,0.5l0,0c8.2-6.7,60.6-47.7,88.9-19.2l0,0c0,0,14.8,18-18.3,50.3
							l0,0c-30.5,24.8-67.6,44.3-112.6,53l0,0c0.3,0,0.7,0.1,1.2,0.1l0,0C47.1,256.5,266.5,213,244.6,0.9l0,0
							c-0.1-0.6-0.5-0.9-1-0.9l0,0C243.2,0,242.8,0.2,242.6,0.8"/>
					</g>
				</g>
			</g>
		</g>
	</g>
</g>
<g>
	<g>
		<path d="M941.9,55.6c-15.3,0-27.8-12.5-27.8-27.8S926.6,0,941.9,0c15.3,0,27.8,12.5,27.8,27.8S957.3,55.6,941.9,55.6z M941.9,5.6
			c-12.2,0-22.2,9.9-22.2,22.2S929.7,50,941.9,50c12.2,0,22.2-9.9,22.2-22.2S954.2,5.6,941.9,5.6z"/>
	</g>
	<g>
		<path d="M940.4,25.6c1.6,0,2.7-0.3,3.4-0.9c0.7-0.6,1-1.5,1-2.9c0-1.3-0.4-2.3-1-2.9c-0.7-0.6-1.8-0.8-3.4-0.8h-3.2v7.5H940.4
			 M937.2,30.7v11h-7.5V12.6h11.5c3.8,0,6.6,0.6,8.4,1.9c1.8,1.3,2.7,3.3,2.7,6.1c0,1.9-0.5,3.5-1.4,4.7c-0.9,1.2-2.3,2.1-4.2,2.7
			c1,0.3,1.9,0.8,2.8,1.6c0.8,0.8,1.6,2.1,2.5,3.8l4.1,8.2h-8l-3.6-7.2c-0.7-1.4-1.4-2.5-2.2-3c-0.7-0.5-1.7-0.8-2.9-0.8H937.2"/>
	</g>
</g>
</svg>
